<svg id="visual" viewBox="0 0 960 540" width="960" height="540" xmlns="http://www.w3.org/2000/svg" xmlns:xlink="http://www.w3.org/1999/xlink" version="1.1"><path d="M0 388L14.5 386.2C29 384.3 58 380.7 87.2 382.2C116.3 383.7 145.7 390.3 174.8 388.7C204 387 233 377 262 381C291 385 320 403 349 408C378 413 407 405 436.2 405C465.3 405 494.7 413 523.8 407C553 401 582 381 611 371.8C640 362.7 669 364.3 698 369.8C727 375.3 756 384.7 785.2 390.8C814.3 397 843.7 400 872.8 399.5C902 399 931 395 945.5 393L960 391L960 541L945.5 541C931 541 902 541 872.8 541C843.7 541 814.3 541 785.2 541C756 541 727 541 698 541C669 541 640 541 611 541C582 541 553 541 523.8 541C494.7 541 465.3 541 436.2 541C407 541 378 541 349 541C320 541 291 541 262 541C233 541 204 541 174.8 541C145.7 541 116.3 541 87.2 541C58 541 29 541 14.5 541L0 541Z" fill="#3e000c"></path><path d="M0 463L14.5 462.2C29 461.3 58 459.7 87.2 458.2C116.3 456.7 145.7 455.3 174.8 453.8C204 452.3 233 450.7 262 442.3C291 434 320 419 349 417C378 415 407 426 436.2 434.5C465.3 443 494.7 449 523.8 448.3C553 447.7 582 440.3 611 433.5C640 426.7 669 420.3 698 415.5C727 410.7 756 407.3 785.2 406.8C814.3 406.3 843.7 408.7 872.8 414.7C902 420.7 931 430.3 945.5 435.2L960 440L960 541L945.5 541C931 541 902 541 872.8 541C843.7 541 814.3 541 785.2 541C756 541 727 541 698 541C669 541 640 541 611 541C582 541 553 541 523.8 541C494.7 541 465.3 541 436.2 541C407 541 378 541 349 541C320 541 291 541 262 541C233 541 204 541 174.8 541C145.7 541 116.3 541 87.2 541C58 541 29 541 14.5 541L0 541Z" fill="#7e4b3f"></path><path d="M0 467L14.5 464.7C29 462.3 58 457.7 87.2 456C116.3 454.3 145.7 455.7 174.8 460.3C204 465 233 473 262 470.3C291 467.7 320 454.3 349 447.8C378 441.3 407 441.7 436.2 447.2C465.3 452.7 494.7 463.3 523.8 466.5C553 469.7 582 465.3 611 459.5C640 453.7 669 446.3 698 450C727 453.7 756 468.3 785.2 474.8C814.3 481.3 843.7 479.7 872.8 478C902 476.3 931 474.7 945.5 473.8L960 473L960 541L945.5 541C931 541 902 541 872.8 541C843.7 541 814.3 541 785.2 541C756 541 727 541 698 541C669 541 640 541 611 541C582 541 553 541 523.8 541C494.7 541 465.3 541 436.2 541C407 541 378 541 349 541C320 541 291 541 262 541C233 541 204 541 174.8 541C145.7 541 116.3 541 87.2 541C58 541 29 541 14.5 541L0 541Z" fill="#be9981"></path><path d="M0 508L14.5 507.7C29 507.3 58 506.7 87.2 507.5C116.3 508.3 145.7 510.7 174.8 509.2C204 507.7 233 502.3 262 496.2C291 490 320 483 349 484.7C378 486.3 407 496.7 436.2 498.5C465.3 500.3 494.7 493.7 523.8 488.5C553 483.3 582 479.7 611 480.5C640 481.3 669 486.7 698 492.8C727 499 756 506 785.2 508.3C814.3 510.7 843.7 508.3 872.8 504.5C902 500.7 931 495.3 945.5 492.7L960 490L960 541L945.5 541C931 541 902 541 872.8 541C843.7 541 814.3 541 785.2 541C756 541 727 541 698 541C669 541 640 541 611 541C582 541 553 541 523.8 541C494.7 541 465.3 541 436.2 541C407 541 378 541 349 541C320 541 291 541 262 541C233 541 204 541 174.8 541C145.7 541 116.3 541 87.2 541C58 541 29 541 14.5 541L0 541Z" fill="#ffecd1"></path></svg>