<svg id="visual" viewBox="0 0 960 540" width="960" height="540" xmlns="http://www.w3.org/2000/svg" xmlns:xlink="http://www.w3.org/1999/xlink" version="1.1"><path d="M0 382L14.5 381.5C29 381 58 380 87.2 376.8C116.3 373.7 145.7 368.3 174.8 368.2C204 368 233 373 262 373.7C291 374.3 320 370.7 349 368C378 365.3 407 363.7 436.2 362C465.3 360.3 494.7 358.7 523.8 356C553 353.3 582 349.7 611 356.2C640 362.7 669 379.3 698 389C727 398.7 756 401.3 785.2 391.7C814.3 382 843.7 360 872.8 359.5C902 359 931 380 945.5 390.5L960 401L960 541L945.5 541C931 541 902 541 872.8 541C843.7 541 814.3 541 785.2 541C756 541 727 541 698 541C669 541 640 541 611 541C582 541 553 541 523.8 541C494.7 541 465.3 541 436.2 541C407 541 378 541 349 541C320 541 291 541 262 541C233 541 204 541 174.8 541C145.7 541 116.3 541 87.2 541C58 541 29 541 14.5 541L0 541Z" fill="#3e000c"></path><path d="M0 420L14.5 418C29 416 58 412 87.2 403.3C116.3 394.7 145.7 381.3 174.8 386.7C204 392 233 416 262 417.8C291 419.7 320 399.3 349 389.3C378 379.3 407 379.7 436.2 381.3C465.3 383 494.7 386 523.8 384.3C553 382.7 582 376.3 611 378.5C640 380.7 669 391.3 698 397C727 402.7 756 403.3 785.2 399.3C814.3 395.3 843.7 386.7 872.8 386C902 385.3 931 392.7 945.5 396.3L960 400L960 541L945.5 541C931 541 902 541 872.8 541C843.7 541 814.3 541 785.2 541C756 541 727 541 698 541C669 541 640 541 611 541C582 541 553 541 523.8 541C494.7 541 465.3 541 436.2 541C407 541 378 541 349 541C320 541 291 541 262 541C233 541 204 541 174.8 541C145.7 541 116.3 541 87.2 541C58 541 29 541 14.5 541L0 541Z" fill="#7e4b3f"></path><path d="M0 422L14.5 428.8C29 435.7 58 449.3 87.2 456.7C116.3 464 145.7 465 174.8 458.7C204 452.3 233 438.7 262 433.3C291 428 320 431 349 436.8C378 442.7 407 451.3 436.2 447.7C465.3 444 494.7 428 523.8 422.5C553 417 582 422 611 426.8C640 431.7 669 436.3 698 443C727 449.7 756 458.3 785.2 460.8C814.3 463.3 843.7 459.7 872.8 453.3C902 447 931 438 945.5 433.5L960 429L960 541L945.5 541C931 541 902 541 872.8 541C843.7 541 814.3 541 785.2 541C756 541 727 541 698 541C669 541 640 541 611 541C582 541 553 541 523.8 541C494.7 541 465.3 541 436.2 541C407 541 378 541 349 541C320 541 291 541 262 541C233 541 204 541 174.8 541C145.7 541 116.3 541 87.2 541C58 541 29 541 14.5 541L0 541Z" fill="#be9981"></path><path d="M0 498L14.5 496C29 494 58 490 87.2 490.2C116.3 490.3 145.7 494.7 174.8 492.5C204 490.3 233 481.7 262 476.8C291 472 320 471 349 472.7C378 474.3 407 478.7 436.2 479.8C465.3 481 494.7 479 523.8 479.2C553 479.3 582 481.7 611 480.2C640 478.7 669 473.3 698 469C727 464.7 756 461.3 785.2 460.8C814.3 460.3 843.7 462.7 872.8 463.5C902 464.3 931 463.7 945.5 463.3L960 463L960 541L945.5 541C931 541 902 541 872.8 541C843.7 541 814.3 541 785.2 541C756 541 727 541 698 541C669 541 640 541 611 541C582 541 553 541 523.8 541C494.7 541 465.3 541 436.2 541C407 541 378 541 349 541C320 541 291 541 262 541C233 541 204 541 174.8 541C145.7 541 116.3 541 87.2 541C58 541 29 541 14.5 541L0 541Z" fill="#ffecd1"></path></svg>